<svg width="24" height="24" viewBox="0 0 16 16" xmlns="http://www.w3.org/2000/svg">
<path d="M3.99992 2C3.65803 2 3.37625 2.25736 3.33774 2.58892L3.33325 2.66667V13.3333C3.33325 13.7015 3.63173 14 3.99992 14C4.34181 14 4.62359 13.7427 4.6621 13.4111L4.66659 13.3333V2.66667C4.66659 2.29848 4.36811 2 3.99992 2ZM12.4713 2.19526C12.231 1.95494 11.8529 1.93645 11.5913 2.1398L11.5285 2.19526L6.19518 7.5286C5.95486 7.76893 5.93637 8.14707 6.13972 8.4086L6.19518 8.4714L11.5285 13.8047C11.7889 14.0651 12.211 14.0651 12.4713 13.8047C12.7117 13.5644 12.7301 13.1863 12.5268 12.9247L12.4713 12.8619L7.60939 8L12.4713 3.13807C12.7317 2.87772 12.7317 2.45561 12.4713 2.19526Z" fill="currentColor"/>
</svg>
