<svg width="24" height="24" viewBox="0 0 24 24" xmlns="http://www.w3.org/2000/svg">
<path d="M18 3C18.5128 3 18.9355 3.38604 18.9933 3.88338L19 4V20C19 20.5523 18.5523 21 18 21C17.4872 21 17.0645 20.614 17.0067 20.1166L17 20V4C17 3.44772 17.4477 3 18 3ZM5.2929 3.29289C5.6534 2.93241 6.2206 2.90468 6.6129 3.2097L6.7071 3.29289L14.7071 11.2929C15.0676 11.6534 15.0953 12.2206 14.7903 12.6129L14.7071 12.7071L6.7071 20.7071C6.3166 21.0976 5.6834 21.0976 5.2929 20.7071C4.9324 20.3466 4.9047 19.7794 5.2097 19.3871L5.2929 19.2929L12.5858 12L5.2929 4.70711C4.9024 4.31658 4.9024 3.68342 5.2929 3.29289Z" fill="currentColor"/>
</svg>
